#N canvas 158 54 551 586 12;
#X obj 318 311 vline~;
#X obj 266 381 *~;
#X obj 266 405 dac~;
#X floatatom 318 221 5 0 0 0 - - -;
#X obj 318 267 dbtorms;
#X obj 318 244 max 0;
#X msg 318 288 \$1 20;
#X obj 187 57 receive fromGUI;
#X obj 187 79 list trim;
#X obj 187 111 route /setFreq;
#X obj 291 111 route /setVol;
#X obj 291 135 * 127;
#X obj 236 267 vline~;
#X msg 236 244 \$1 20;
#X obj 187 159 *;
#X obj 143 311 send toGUI;
#X obj 79 212 list prepend /freq;
#X obj 236 308 phasor~;
#X obj 236 332 *~ 2;
#X obj 237 355 *~ -1;
#X obj 187 135 * 50;
#X connect 0 0 1 1;
#X connect 1 0 2 0;
#X connect 1 0 2 1;
#X connect 3 0 5 0;
#X connect 4 0 6 0;
#X connect 5 0 4 0;
#X connect 6 0 0 0;
#X connect 7 0 8 0;
#X connect 8 0 9 0;
#X connect 8 0 10 0;
#X connect 9 0 20 0;
#X connect 10 0 11 0;
#X connect 11 0 3 0;
#X connect 12 0 17 0;
#X connect 13 0 12 0;
#X connect 14 0 16 0;
#X connect 14 0 13 0;
#X connect 16 0 15 0;
#X connect 17 0 18 0;
#X connect 18 0 19 0;
#X connect 19 0 1 0;
#X connect 20 0 14 0;
#X connect 20 0 14 1;
