#N canvas 96 95 777 619 10;
#X obj 20 344 adc~ 1;
#X obj 39 415 writesf~ 1;
#X msg 185 389 stop;
#X obj 268 249 soundfiler;
#X floatatom 293 299 8 0 0 0 - - -;
#X msg 270 338 \; sample1 normalize;
#X obj 44 551 dac~;
#X obj 39 381 *~;
#X obj 65 336 line~;
#X msg 67 312 1 100;
#X obj 65 269 bng 15 250 50 0 empty empty empty 17 7 0 10 -262144 -1
-1;
#X obj 66 290 t b b;
#X obj 84 210 bng 15 250 50 0 empty empty empty 17 7 0 10 -262144 -1
-1;
#X msg 84 253 0 100;
#X obj 142 283 del 100;
#X obj 65 134 tgl 45 0 empty empty empty 17 7 0 10 -258113 -1 -1 0
1;
#X obj 65 184 sel 1 0;
#X floatatom 140 239 5 0 0 0 - - -;
#X obj 110 338 f 0;
#X floatatom 268 203 5 0 0 0 - - -;
#X obj 43 487 catch~ out;
#X obj 293 319 s length;
#X obj 270 374 table sample1 100;
#X msg 110 364 open rec-\$1.wav \, start;
#X msg 268 225 read -resize rec-\$1.wav sample1;
#X obj 199 333 f;
#X obj 84 230 t b b;
#X obj 142 304 t b b;
#X obj 192 308 del 200;
#N canvas 169 105 912 601 granular 0;
#X obj 165 319 phasor~;
#X obj 165 375 *~;
#X floatatom 251 126 5 0 0 1 ms - -;
#X obj 251 146 t f f;
#X obj 251 166 expr 1000/$f1;
#X floatatom 239 189 5 0 0 1 Hz - -;
#X obj 180 348 * 44.1;
#X obj 164 483 throw~ out;
#X obj 181 19 inlet;
#X text 486 135 1000ms=441000samples;
#X text 487 145 0100ms=044100samples;
#X floatatom 395 188 8 0 0 1 samples - -;
#X obj 164 420 tabread4~ sample1;
#X obj 190 207 *~;
#X floatatom 135 97 5 0 0 1 Halbtonschritt - -;
#X obj 124 115 expr pow(2 \, $f1/12);
#X floatatom 135 133 5 0 0 0 - - -;
#X obj 136 163 sig~ 1;
#X obj 234 328 *~ 0.5;
#X obj 234 372 cos~;
#X obj 164 438 *~;
#X obj 318 378 *~;
#X obj 333 351 * 44.1;
#X obj 317 423 tabread4~ sample1;
#X obj 379 349 *~ 0.5;
#X obj 379 367 -~ 0.25;
#X obj 379 386 cos~;
#X obj 317 441 *~;
#X obj 344 294 +~ 0.5;
#X obj 344 312 wrap~;
#X obj 164 462 +~;
#X obj 175 395 +~;
#X obj 318 396 +~;
#X obj 353 66 hsl 128 15 0 127 0 0 empty empty empty -2 -8 0 10 -262144
-1 -1 0 1;
#X obj 350 84 / 127;
#X obj 349 132 * 4000;
#X obj 210 400 samphold~;
#X obj 352 403 samphold~;
#X obj 445 251 noise~;
#X obj 445 270 *~ 0;
#X obj 470 212 hsl 128 15 0 127 0 0 empty empty empty -2 -8 0 10 -262144
-1 -1 0 1;
#X obj 445 288 *~ 44.1;
#X obj 396 235 +~;
#X obj 395 205 sig~;
#X obj 234 352 -~ 0.25;
#X floatatom 468 229 5 0 0 0 - - -;
#X obj 424 92 r length;
#X obj 274 60 loadbang;
#X msg 274 81 50;
#X obj 368 22 inlet;
#X obj 558 52 inlet;
#X connect 0 0 1 0;
#X connect 0 0 18 0;
#X connect 0 0 28 0;
#X connect 0 0 36 1;
#X connect 1 0 31 0;
#X connect 2 0 3 0;
#X connect 3 0 4 0;
#X connect 3 1 6 0;
#X connect 3 1 22 0;
#X connect 4 0 5 0;
#X connect 5 0 13 1;
#X connect 6 0 1 1;
#X connect 8 0 14 0;
#X connect 11 0 43 0;
#X connect 12 0 20 0;
#X connect 13 0 0 0;
#X connect 14 0 15 0;
#X connect 15 0 16 0;
#X connect 16 0 17 0;
#X connect 17 0 13 0;
#X connect 18 0 44 0;
#X connect 19 0 20 1;
#X connect 20 0 30 0;
#X connect 21 0 32 0;
#X connect 22 0 21 1;
#X connect 23 0 27 0;
#X connect 24 0 25 0;
#X connect 25 0 26 0;
#X connect 26 0 27 1;
#X connect 27 0 30 1;
#X connect 28 0 29 0;
#X connect 29 0 21 0;
#X connect 29 0 24 0;
#X connect 29 0 37 1;
#X connect 30 0 7 0;
#X connect 31 0 12 0;
#X connect 32 0 23 0;
#X connect 33 0 34 0;
#X connect 34 0 35 0;
#X connect 35 0 11 0;
#X connect 36 0 31 1;
#X connect 37 0 32 1;
#X connect 38 0 39 0;
#X connect 39 0 41 0;
#X connect 40 0 45 0;
#X connect 41 0 42 1;
#X connect 42 0 36 0;
#X connect 42 0 37 0;
#X connect 43 0 42 0;
#X connect 44 0 19 0;
#X connect 45 0 39 1;
#X connect 46 0 35 1;
#X connect 47 0 48 0;
#X connect 48 0 2 0;
#X connect 49 0 33 0;
#X connect 50 0 40 0;
#X restore 424 536 pd granular;
#X obj 268 270 t b f;
#X obj 241 140 loadbang;
#X msg 241 161 0;
#X floatatom 424 461 5 0 0 0 - - -;
#X obj 458 489 hsl 128 15 0 127 0 0 empty empty empty -2 -8 0 10 -262144
-1 -1 0 1;
#X obj 490 512 hsl 128 15 0 127 0 0 empty empty empty -2 -8 0 10 -262144
-1 -1 0 1;
#X obj 484 461 * 127;
#X obj 425 351 r fromGUI;
#X obj 425 372 list trim;
#X obj 424 416 * 24;
#X obj 424 437 - 12;
#X obj 544 447 * 127;
#X floatatom 111 85 5 0 0 0 - - -;
#X obj 43 508 *~ 0;
#X obj 144 492 tgl 15 0 empty empty empty 17 7 0 10 -262144 -1 -1 0
1;
#X obj 424 395 route /pitch /position /random /record /an;
#X connect 0 0 7 0;
#X connect 2 0 1 0;
#X connect 3 0 30 0;
#X connect 4 0 21 0;
#X connect 7 0 1 0;
#X connect 8 0 7 1;
#X connect 9 0 8 0;
#X connect 10 0 11 0;
#X connect 11 0 9 0;
#X connect 11 1 18 0;
#X connect 12 0 26 0;
#X connect 13 0 8 0;
#X connect 14 0 27 0;
#X connect 15 0 16 0;
#X connect 16 0 10 0;
#X connect 16 1 12 0;
#X connect 17 0 18 1;
#X connect 17 0 25 1;
#X connect 18 0 23 0;
#X connect 19 0 24 0;
#X connect 20 0 43 0;
#X connect 23 0 1 0;
#X connect 24 0 3 0;
#X connect 25 0 19 0;
#X connect 26 0 13 0;
#X connect 26 1 14 0;
#X connect 27 0 2 0;
#X connect 27 1 28 0;
#X connect 28 0 25 0;
#X connect 30 0 5 0;
#X connect 30 1 4 0;
#X connect 31 0 32 0;
#X connect 32 0 19 0;
#X connect 33 0 29 0;
#X connect 34 0 29 1;
#X connect 35 0 29 2;
#X connect 36 0 34 0;
#X connect 37 0 38 0;
#X connect 38 0 45 0;
#X connect 39 0 40 0;
#X connect 40 0 33 0;
#X connect 41 0 35 0;
#X connect 42 0 15 0;
#X connect 43 0 6 0;
#X connect 43 0 6 1;
#X connect 44 0 43 1;
#X connect 45 0 39 0;
#X connect 45 1 36 0;
#X connect 45 2 41 0;
#X connect 45 3 42 0;
#X connect 45 4 44 0;
