#N canvas 239 26 336 294 10;
#X obj 60 195 catch~ out;
#X obj 60 218 dac~ 1 2;
#N canvas 263 70 1000 757 sinusteil 0;
#X obj 169 341 mtof;
#X floatatom 169 323 5 0 0 0 - - -;
#X obj 168 401 phasor~;
#X obj 168 452 cos~;
#X floatatom 302 414 5 0 0 0 - - -;
#X obj 168 511 *~;
#X obj 579 388 vsl 15 128 0 127 0 0 empty empty empty 0 -9 0 10 -262144
-1 -1 0 1;
#X msg 579 528 \$1 100;
#X obj 579 611 *~;
#X obj 579 631 *~;
#X obj 168 531 throw~ out;
#X obj 579 591 /~ 127;
#X obj 579 548 line~;
#X obj 66 382 +;
#X obj 95 319 * 12;
#X obj 95 339 t b f;
#X floatatom 66 402 5 0 0 0 - - -;
#X obj 64 241 hradio 15 1 0 12 empty empty empty 0 -8 0 10 -262144
-1 -1 5;
#X obj 95 274 hradio 15 1 0 5 empty empty empty 0 -8 0 10 -262144 -1
-1 1;
#X obj 253 330 hradio 15 1 0 14 empty empty empty 0 -8 0 10 -262144
-1 -1 1;
#X obj 487 113 tgl 15 0 empty empty empty 17 7 0 10 -262144 -1 -1 0
1;
#X obj 95 293 + 2;
#X obj 253 361 + 4;
#X obj 321 225 random 14;
#X obj 480 518 line~;
#X obj 404 176 metro 500;
#X obj 505 159 sel 1;
#X obj 505 216 random 128;
#X obj 505 236 / 128;
#X floatatom 505 276 5 0 0 0 - - -;
#X obj 124 156 loadbang;
#X msg 124 176 0;
#X obj 667 144 r fromSystem;
#X obj 256 21 r fromGUI;
#X floatatom 255 112 5 0 0 0 - - -;
#X obj 256 41 list trim;
#X obj 320 280 list prepend /overtone;
#X obj 320 300 s toGUI;
#X obj 404 227 t b b;
#X obj 478 329 t b b;
#X obj 321 245 t f f;
#X obj 575 279 * 127;
#X obj 152 603 sel 0 1 2 3 4 5 6 7 8 9 10 11;
#X msg 161 630 c;
#X msg 171 651 cis;
#X msg 192 670 d;
#X msg 202 691 es;
#X msg 222 632 e;
#X msg 232 653 f;
#X msg 253 672 fis;
#X msg 263 693 g;
#X obj 73 655 symbol;
#X msg 271 632 as;
#X msg 281 653 a;
#X msg 302 672 b;
#X msg 312 693 h;
#X floatatom 152 582 5 0 0 0 - - -;
#X obj 11 681 s toGUI;
#X obj 27 564 list prepend /pitch;
#X obj 14 540 list prepend /oct;
#X msg 19 512 [\$1];
#X msg 63 488 [\$1];
#X obj 58 516 list prepend /overt;
#X obj 667 164 list trim;
#X obj 686 221 == 0;
#X obj 256 67 route /chromatic /octave /overtone /volume /pling;
#X obj 759 215 loadbang;
#X msg 759 235 0;
#X obj 505 256 expr pow(4 \, $f1)* 400;
#X obj 488 310 bng 15 250 50 0 empty empty empty 17 7 0 10 -262144
-1 -1;
#X msg 208 377 0;
#X obj 168 432 *~ 1;
#X obj 487 133 t f f f;
#X obj 534 343 == 0;
#X msg 516 432 \$1 20;
#X obj 579 568 *~;
#X obj 428 418 t b b;
#X obj 427 461 del 2;
#X msg 477 468 1 2;
#X obj 534 363 t f f;
#X obj 473 424 sel 1;
#X msg 473 444 stop;
#X msg 687 297 0;
#X obj 687 365 list prepend /volume;
#X obj 19 316 s pitch;
#X obj 573 136 loadbang;
#X msg 573 156 0;
#X obj 169 361 * 443;
#X obj 169 381 / 440;
#X obj 687 317 t f f;
#X obj 685 264 sel 0;
#X msg 427 483 0 400;
#X obj 686 187 route /page /timeList;
#X msg 622 100 seed \$7;
#X obj 505 179 t b b;
#X obj 758 88 s toSystem;
#X obj 737 52 list prepend /getTime;
#X obj 645 495 print;
#X connect 0 0 87 0;
#X connect 1 0 0 0;
#X connect 2 0 71 0;
#X connect 3 0 5 0;
#X connect 4 0 61 0;
#X connect 4 0 71 1;
#X connect 5 0 10 0;
#X connect 6 0 7 0;
#X connect 6 0 97 0;
#X connect 7 0 12 0;
#X connect 8 0 9 0;
#X connect 9 0 5 1;
#X connect 11 0 8 0;
#X connect 11 0 8 1;
#X connect 11 0 9 1;
#X connect 12 0 75 0;
#X connect 13 0 16 0;
#X connect 14 0 15 0;
#X connect 15 0 13 0;
#X connect 15 1 13 1;
#X connect 16 0 1 0;
#X connect 16 0 84 0;
#X connect 17 0 13 0;
#X connect 17 0 56 0;
#X connect 18 0 21 0;
#X connect 18 0 60 0;
#X connect 19 0 22 0;
#X connect 20 0 72 0;
#X connect 21 0 14 0;
#X connect 22 0 4 0;
#X connect 23 0 40 0;
#X connect 24 0 75 1;
#X connect 25 0 38 0;
#X connect 26 0 94 0;
#X connect 27 0 28 0;
#X connect 28 0 68 0;
#X connect 29 0 25 1;
#X connect 30 0 31 0;
#X connect 31 0 18 0;
#X connect 31 0 17 0;
#X connect 31 0 19 0;
#X connect 32 0 63 0;
#X connect 33 0 35 0;
#X connect 34 0 17 0;
#X connect 35 0 65 0;
#X connect 36 0 37 0;
#X connect 38 0 23 0;
#X connect 38 1 39 0;
#X connect 39 0 70 0;
#X connect 39 1 76 0;
#X connect 40 0 19 0;
#X connect 40 1 36 0;
#X connect 41 0 6 0;
#X connect 42 0 43 0;
#X connect 42 1 44 0;
#X connect 42 2 45 0;
#X connect 42 3 46 0;
#X connect 42 4 47 0;
#X connect 42 5 48 0;
#X connect 42 6 49 0;
#X connect 42 7 50 0;
#X connect 42 8 52 0;
#X connect 42 9 53 0;
#X connect 42 10 54 0;
#X connect 42 11 55 0;
#X connect 43 0 51 0;
#X connect 44 0 51 0;
#X connect 45 0 51 0;
#X connect 46 0 51 0;
#X connect 47 0 51 0;
#X connect 48 0 51 0;
#X connect 49 0 51 0;
#X connect 50 0 51 0;
#X connect 51 0 58 0;
#X connect 52 0 51 0;
#X connect 53 0 51 0;
#X connect 54 0 51 0;
#X connect 55 0 51 0;
#X connect 56 0 42 0;
#X connect 58 0 57 0;
#X connect 59 0 57 0;
#X connect 60 0 59 0;
#X connect 61 0 62 0;
#X connect 62 0 57 0;
#X connect 63 0 92 0;
#X connect 64 0 90 0;
#X connect 65 0 34 0;
#X connect 65 1 18 0;
#X connect 65 2 19 0;
#X connect 65 3 41 0;
#X connect 65 4 20 0;
#X connect 66 0 67 0;
#X connect 67 0 64 0;
#X connect 68 0 29 0;
#X connect 69 0 39 0;
#X connect 70 0 2 1;
#X connect 71 0 3 0;
#X connect 72 0 25 0;
#X connect 72 1 26 0;
#X connect 72 2 73 0;
#X connect 73 0 79 0;
#X connect 74 0 24 0;
#X connect 75 0 11 0;
#X connect 76 0 77 0;
#X connect 76 1 78 0;
#X connect 77 0 91 0;
#X connect 78 0 24 0;
#X connect 79 0 74 0;
#X connect 79 1 80 0;
#X connect 80 0 81 0;
#X connect 81 0 77 0;
#X connect 81 0 24 0;
#X connect 82 0 89 0;
#X connect 83 0 57 0;
#X connect 85 0 86 0;
#X connect 86 0 20 0;
#X connect 87 0 88 0;
#X connect 88 0 2 0;
#X connect 89 0 6 0;
#X connect 89 1 83 0;
#X connect 90 0 82 0;
#X connect 91 0 24 0;
#X connect 92 0 64 0;
#X connect 92 1 93 0;
#X connect 93 0 27 0;
#X connect 94 0 27 0;
#X connect 94 1 96 0;
#X connect 96 0 95 0;
#X restore 53 112 pd sinusteil;
#N canvas 0 22 600 431 rauschen 0;
#X obj 125 117 noise~;
#X obj 208 253 tgl 15 0 empty empty empty 17 7 0 10 -262144 -1 -1 0
1;
#X floatatom 162 162 5 0 0 0 - - -;
#X floatatom 208 178 5 0 0 0 - - -;
#X obj 202 125 hsl 128 15 0 127 0 0 empty empty empty -2 -8 0 10 -262144
-1 -1 0 1;
#X obj 202 146 mtof;
#X obj 125 205 bp~ 2000 1, f 13;
#X obj 288 185 loadbang;
#X obj 231 22 list trim;
#X obj 231 1 r fromGUI;
#X obj 231 64 unpack f f f;
#X obj 231 87 > 0;
#X obj 380 64 * -50;
#X obj 380 85 + 50;
#X obj 323 100 + 77;
#X msg 288 206 12;
#X floatatom 393 180 5 0 0 0 - - -;
#X obj 126 288 throw~ out;
#X obj 125 225 *~;
#X floatatom 402 244 5 0 0 0 - - -;
#X obj 392 119 t f f;
#X msg 402 263 \$1 20;
#X obj 402 283 line~;
#X obj 213 299 line~;
#X obj 126 267 *~;
#X obj 394 159 expr pow(24 \, $f1)*2;
#X obj 404 223 expr pow(12 \, $f1);
#X obj 213 319 *~;
#X obj 314 368 expr pow(2000 \, $f1);
#X obj 231 43 route /rausch /fade;
#X obj 208 273 pack f 1;
#X connect 0 0 6 0;
#X connect 1 0 30 0;
#X connect 2 0 6 1;
#X connect 3 0 6 2;
#X connect 4 0 5 0;
#X connect 5 0 2 0;
#X connect 6 0 18 0;
#X connect 7 0 15 0;
#X connect 8 0 29 0;
#X connect 9 0 8 0;
#X connect 10 0 11 0;
#X connect 10 1 20 0;
#X connect 10 2 12 0;
#X connect 11 0 1 0;
#X connect 12 0 13 0;
#X connect 13 0 14 0;
#X connect 14 0 4 0;
#X connect 15 0 3 0;
#X connect 16 0 3 0;
#X connect 18 0 24 0;
#X connect 19 0 21 0;
#X connect 20 0 25 0;
#X connect 20 1 26 0;
#X connect 21 0 22 0;
#X connect 22 0 18 1;
#X connect 23 0 27 0;
#X connect 23 0 27 1;
#X connect 24 0 17 0;
#X connect 25 0 16 0;
#X connect 26 0 19 0;
#X connect 27 0 24 1;
#X connect 28 0 30 1;
#X connect 29 0 10 0;
#X connect 29 1 28 0;
#X connect 30 0 23 0;
#X restore 132 112 pd rauschen;
#N canvas 394 140 1029 666 puls 0;
#X obj 280 551 throw~ out;
#X obj 277 230 phasor~;
#X obj 278 271 *~;
#X obj 277 302 clip~ 0 1;
#X obj 277 322 +~ 0.75;
#X obj 277 342 cos~;
#X obj 277 362 *~;
#X obj 342 325 cos~;
#X obj 342 349 *~ -0.5;
#X obj 342 369 +~ 0.5;
#X obj 514 161 hsl 128 15 0 127 0 0 empty empty empty -2 -8 0 10 -262144
-1 -1 0 1;
#X obj 514 181 / 127;
#X msg 514 221 \$1 100;
#X obj 514 252 line~;
#X floatatom 277 149 5 0 0 0 - - -;
#X obj 277 168 mtof;
#X obj 275 95 r pitch;
#X obj 132 90 noise~;
#X obj 132 110 abs~;
#X obj 132 219 expr~ if($v1>0 \, 1 \, 0);
#X obj 382 308 samphold~;
#X obj 193 -28 vsl 15 128 0 127 0 0 empty empty empty 0 -9 0 10 -262144
-1 -1 0 1;
#X obj 342 389 *~;
#X floatatom 349 167 5 0 0 0 - - -;
#X floatatom 442 92 5 0 0 0 - - -;
#X obj 514 201 expr pow($f2 \, $f1);
#X obj 442 111 t b f;
#X obj 441 73 expr 5000/$f1;
#X obj 275 115 + 24;
#X obj 132 130 *~ -1;
#X obj 132 199 +~;
#X obj 193 159 t f f;
#X obj 193 179 *;
#X obj 277 382 *~ 1.5;
#X obj 288 1 r fromGUI;
#X obj 288 21 list trim;
#X obj 232 0 * 127;
#X obj 338 71 * 127;
#X obj 29 235 r fromSystem;
#X obj 29 255 list trim;
#X obj 29 275 route /page;
#X obj 28 491 s toGUI;
#X msg 34 365 0;
#X obj 34 385 t f f;
#X obj 193 139 / 120;
#X obj 193 108 clip 0 120;
#X obj 34 405 list prepend /probability;
#X obj 288 41 route /probability /sound /puls;
#X obj 279 190 * 443;
#X obj 279 210 / 440;
#X obj 29 295 == 2;
#X obj 29 315 sel 0;
#X obj 17 177 print puls;
#X connect 1 0 2 0;
#X connect 1 0 20 1;
#X connect 2 0 3 0;
#X connect 3 0 4 0;
#X connect 3 0 7 0;
#X connect 4 0 5 0;
#X connect 5 0 6 0;
#X connect 6 0 33 0;
#X connect 7 0 8 0;
#X connect 8 0 9 0;
#X connect 9 0 22 0;
#X connect 10 0 11 0;
#X connect 11 0 25 0;
#X connect 12 0 13 0;
#X connect 13 0 2 1;
#X connect 14 0 15 0;
#X connect 15 0 23 0;
#X connect 15 0 48 0;
#X connect 16 0 28 0;
#X connect 17 0 18 0;
#X connect 18 0 29 0;
#X connect 19 0 20 0;
#X connect 20 0 22 1;
#X connect 21 0 45 0;
#X connect 21 0 52 0;
#X connect 22 0 6 1;
#X connect 23 0 27 0;
#X connect 24 0 26 0;
#X connect 25 0 12 0;
#X connect 26 0 11 0;
#X connect 26 1 25 1;
#X connect 27 0 24 0;
#X connect 28 0 14 0;
#X connect 29 0 30 0;
#X connect 30 0 19 0;
#X connect 31 0 32 0;
#X connect 31 1 32 1;
#X connect 32 0 30 1;
#X connect 33 0 0 0;
#X connect 34 0 35 0;
#X connect 35 0 47 0;
#X connect 36 0 21 0;
#X connect 37 0 10 0;
#X connect 38 0 39 0;
#X connect 39 0 40 0;
#X connect 40 0 50 0;
#X connect 42 0 43 0;
#X connect 43 0 46 0;
#X connect 43 1 21 0;
#X connect 44 0 31 0;
#X connect 45 0 44 0;
#X connect 46 0 41 0;
#X connect 47 0 36 0;
#X connect 47 1 37 0;
#X connect 48 0 49 0;
#X connect 49 0 1 0;
#X connect 50 0 51 0;
#X connect 51 0 42 0;
#X restore 205 112 pd puls;
#X connect 0 0 1 0;
#X connect 0 0 1 1;
