#N canvas 493 37 727 300 10;
#X obj 355 50 receive fromGUI;
#X obj 340 244 dac~;
#X floatatom 356 112 5 0 0 0 - - -;
#X obj 355 72 list trim;
#X obj 355 92 route /volSlider;
#X obj 356 131 * 127;
#X obj 356 152 dbtorms;
#X obj 340 200 *~;
#X obj 356 173 line~ 50;
#X obj 152 97 route /recButton;
#X floatatom 152 117 5 0 0 0 - - -;
#X obj 137 242 writesf~;
#X obj 136 56 adc~ 1;
#X obj 152 137 sel 1;
#X msg 193 177 open tmp.wav;
#X msg 152 177 start;
#X msg 193 158 stop;
#X floatatom 490 111 5 0 0 0 - - -;
#X obj 490 131 sel 1;
#X msg 530 173 open tmp.wav;
#X msg 490 172 start;
#X msg 535 153 stop;
#X obj 490 91 route /playButton;
#X obj 490 198 readsf~;
#X obj 490 221 throw~;
#X obj 305 170 catch~;
#X obj 490 152 t b b;
#X obj 152 157 t b b;
#X obj 340 221 *~;
#X obj 367 193 line~ 50;
#X obj 137 221 *~;
#X obj 151 199 line~ 50;
#X connect 0 0 3 0;
#X connect 2 0 5 0;
#X connect 3 0 4 0;
#X connect 3 0 9 0;
#X connect 3 0 22 0;
#X connect 4 0 2 0;
#X connect 5 0 6 0;
#X connect 6 0 8 0;
#X connect 7 0 28 0;
#X connect 8 0 7 1;
#X connect 9 0 10 0;
#X connect 10 0 13 0;
#X connect 10 0 31 0;
#X connect 12 0 30 0;
#X connect 13 0 27 0;
#X connect 13 1 16 0;
#X connect 14 0 11 0;
#X connect 15 0 11 0;
#X connect 16 0 11 0;
#X connect 17 0 18 0;
#X connect 17 0 29 0;
#X connect 18 0 26 0;
#X connect 18 1 21 0;
#X connect 19 0 23 0;
#X connect 20 0 23 0;
#X connect 21 0 23 0;
#X connect 22 0 17 0;
#X connect 23 0 24 0;
#X connect 25 0 7 0;
#X connect 26 0 20 0;
#X connect 26 1 19 0;
#X connect 27 0 15 0;
#X connect 27 1 14 0;
#X connect 28 0 1 0;
#X connect 28 0 1 1;
#X connect 29 0 28 1;
#X connect 30 0 11 0;
#X connect 31 0 30 1;
